<mxfile host="Electron" modified="2023-08-13T19:22:58.040Z" agent="Mozilla/5.0 (Windows NT 10.0; Win64; x64) AppleWebKit/537.36 (KHTML, like Gecko) draw.io/21.2.8 Chrome/112.0.5615.165 Electron/24.2.0 Safari/537.36" etag="92vahj5ANFI7Fp4EUu40" version="21.2.8" type="device">
  <diagram id="INKrptTbcdT-HqMaEKLI" name="Page-1">
    <mxGraphModel dx="1038" dy="608" grid="1" gridSize="10" guides="1" tooltips="1" connect="1" arrows="1" fold="1" page="1" pageScale="1" pageWidth="850" pageHeight="1100" math="0" shadow="0">
      <root>
        <mxCell id="0" />
        <mxCell id="1" parent="0" />
        <mxCell id="aCj7oY5DYd-7I4Zeuc7w-1" value="&lt;font face=&quot;Verdana&quot;&gt;Applications&lt;/font&gt;" style="rounded=1;whiteSpace=wrap;html=1;fillColor=none;strokeColor=#d6b656;sketch=1;fontColor=#888888;" parent="1" vertex="1">
          <mxGeometry x="140" y="280" width="120" height="30" as="geometry" />
        </mxCell>
        <mxCell id="aCj7oY5DYd-7I4Zeuc7w-2" value="&lt;font face=&quot;Verdana&quot;&gt;Runtimes&lt;/font&gt;" style="rounded=1;whiteSpace=wrap;html=1;fillColor=none;strokeColor=#d6b656;sketch=1;fontColor=#888888;" parent="1" vertex="1">
          <mxGeometry x="140" y="360" width="120" height="30" as="geometry" />
        </mxCell>
        <mxCell id="aCj7oY5DYd-7I4Zeuc7w-5" value="&lt;font face=&quot;Verdana&quot;&gt;Middleware&lt;/font&gt;" style="rounded=1;whiteSpace=wrap;html=1;fillColor=none;strokeColor=#d6b656;sketch=1;fontColor=#888888;" parent="1" vertex="1">
          <mxGeometry x="140" y="400" width="120" height="30" as="geometry" />
        </mxCell>
        <mxCell id="aCj7oY5DYd-7I4Zeuc7w-6" value="&lt;font face=&quot;Verdana&quot;&gt;OS&lt;/font&gt;" style="rounded=1;whiteSpace=wrap;html=1;fillColor=none;strokeColor=#d6b656;sketch=1;fontColor=#888888;" parent="1" vertex="1">
          <mxGeometry x="140" y="440" width="120" height="30" as="geometry" />
        </mxCell>
        <mxCell id="aCj7oY5DYd-7I4Zeuc7w-7" value="&lt;font face=&quot;Verdana&quot;&gt;Data&lt;/font&gt;" style="rounded=1;whiteSpace=wrap;html=1;fillColor=none;strokeColor=#d6b656;sketch=1;fontColor=#888888;" parent="1" vertex="1">
          <mxGeometry x="140" y="320" width="120" height="30" as="geometry" />
        </mxCell>
        <mxCell id="aCj7oY5DYd-7I4Zeuc7w-8" value="&lt;font face=&quot;Verdana&quot;&gt;Virtualaization&lt;/font&gt;" style="rounded=1;whiteSpace=wrap;html=1;fillColor=none;strokeColor=#d6b656;sketch=1;fontColor=#888888;" parent="1" vertex="1">
          <mxGeometry x="140" y="480" width="120" height="30" as="geometry" />
        </mxCell>
        <mxCell id="aCj7oY5DYd-7I4Zeuc7w-9" value="&lt;font face=&quot;Verdana&quot;&gt;Servers&lt;/font&gt;" style="rounded=1;whiteSpace=wrap;html=1;fillColor=none;strokeColor=#d6b656;sketch=1;fontColor=#888888;" parent="1" vertex="1">
          <mxGeometry x="140" y="520" width="120" height="30" as="geometry" />
        </mxCell>
        <mxCell id="aCj7oY5DYd-7I4Zeuc7w-10" value="&lt;font face=&quot;Verdana&quot;&gt;Storage&lt;/font&gt;" style="rounded=1;whiteSpace=wrap;html=1;fillColor=none;strokeColor=#d6b656;sketch=1;fontColor=#888888;" parent="1" vertex="1">
          <mxGeometry x="140" y="560" width="120" height="30" as="geometry" />
        </mxCell>
        <mxCell id="aCj7oY5DYd-7I4Zeuc7w-11" value="&lt;font face=&quot;Verdana&quot;&gt;Networking&lt;/font&gt;" style="rounded=1;whiteSpace=wrap;html=1;fillColor=none;strokeColor=#d6b656;sketch=1;fontColor=#888888;" parent="1" vertex="1">
          <mxGeometry x="140" y="600" width="120" height="30" as="geometry" />
        </mxCell>
        <mxCell id="aCj7oY5DYd-7I4Zeuc7w-12" value="&lt;font face=&quot;Verdana&quot;&gt;Applications&lt;/font&gt;" style="rounded=1;whiteSpace=wrap;html=1;fillColor=none;strokeColor=#d6b656;sketch=1;fontColor=#888888;" parent="1" vertex="1">
          <mxGeometry x="270" y="280" width="120" height="30" as="geometry" />
        </mxCell>
        <mxCell id="aCj7oY5DYd-7I4Zeuc7w-13" value="&lt;font face=&quot;Verdana&quot;&gt;Runtimes&lt;/font&gt;" style="rounded=1;whiteSpace=wrap;html=1;fillColor=none;strokeColor=#d6b656;sketch=1;fontColor=#888888;" parent="1" vertex="1">
          <mxGeometry x="270" y="360" width="120" height="30" as="geometry" />
        </mxCell>
        <mxCell id="aCj7oY5DYd-7I4Zeuc7w-14" value="&lt;font face=&quot;Verdana&quot;&gt;Middleware&lt;/font&gt;" style="rounded=1;whiteSpace=wrap;html=1;fillColor=none;strokeColor=#d6b656;sketch=1;fontColor=#888888;" parent="1" vertex="1">
          <mxGeometry x="270" y="400" width="120" height="30" as="geometry" />
        </mxCell>
        <mxCell id="aCj7oY5DYd-7I4Zeuc7w-15" value="&lt;font face=&quot;Verdana&quot;&gt;OS&lt;/font&gt;" style="rounded=1;whiteSpace=wrap;html=1;fillColor=none;strokeColor=#d6b656;sketch=1;fontColor=#888888;" parent="1" vertex="1">
          <mxGeometry x="270" y="440" width="120" height="30" as="geometry" />
        </mxCell>
        <mxCell id="aCj7oY5DYd-7I4Zeuc7w-16" value="&lt;font face=&quot;Verdana&quot;&gt;Data&lt;/font&gt;" style="rounded=1;whiteSpace=wrap;html=1;fillColor=none;strokeColor=#d6b656;sketch=1;fontColor=#888888;" parent="1" vertex="1">
          <mxGeometry x="270" y="320" width="120" height="30" as="geometry" />
        </mxCell>
        <mxCell id="aCj7oY5DYd-7I4Zeuc7w-17" value="&lt;font face=&quot;Verdana&quot;&gt;Virtualaization&lt;/font&gt;" style="rounded=1;whiteSpace=wrap;html=1;fillColor=none;strokeColor=#6c8ebf;sketch=1;fontColor=#888888;" parent="1" vertex="1">
          <mxGeometry x="270" y="480" width="120" height="30" as="geometry" />
        </mxCell>
        <mxCell id="aCj7oY5DYd-7I4Zeuc7w-18" value="&lt;font face=&quot;Verdana&quot;&gt;Servers&lt;/font&gt;" style="rounded=1;whiteSpace=wrap;html=1;fillColor=none;strokeColor=#6c8ebf;sketch=1;fontColor=#888888;" parent="1" vertex="1">
          <mxGeometry x="270" y="520" width="120" height="30" as="geometry" />
        </mxCell>
        <mxCell id="aCj7oY5DYd-7I4Zeuc7w-21" value="&lt;font face=&quot;Verdana&quot;&gt;Applications&lt;/font&gt;" style="rounded=1;whiteSpace=wrap;html=1;fillColor=none;strokeColor=#d6b656;sketch=1;fontColor=#888888;" parent="1" vertex="1">
          <mxGeometry x="400" y="280" width="120" height="30" as="geometry" />
        </mxCell>
        <mxCell id="aCj7oY5DYd-7I4Zeuc7w-22" value="&lt;font face=&quot;Verdana&quot;&gt;Runtimes&lt;/font&gt;" style="rounded=1;whiteSpace=wrap;html=1;fillColor=none;strokeColor=#6c8ebf;sketch=1;fontColor=#888888;" parent="1" vertex="1">
          <mxGeometry x="400" y="360" width="120" height="30" as="geometry" />
        </mxCell>
        <mxCell id="aCj7oY5DYd-7I4Zeuc7w-23" value="&lt;font face=&quot;Verdana&quot;&gt;Middleware&lt;/font&gt;" style="rounded=1;whiteSpace=wrap;html=1;fillColor=none;strokeColor=#6c8ebf;sketch=1;fontColor=#888888;" parent="1" vertex="1">
          <mxGeometry x="400" y="400" width="120" height="30" as="geometry" />
        </mxCell>
        <mxCell id="aCj7oY5DYd-7I4Zeuc7w-24" value="&lt;font face=&quot;Verdana&quot;&gt;OS&lt;/font&gt;" style="rounded=1;whiteSpace=wrap;html=1;fillColor=none;strokeColor=#6c8ebf;sketch=1;fontColor=#888888;" parent="1" vertex="1">
          <mxGeometry x="400" y="440" width="120" height="30" as="geometry" />
        </mxCell>
        <mxCell id="aCj7oY5DYd-7I4Zeuc7w-25" value="&lt;font face=&quot;Verdana&quot;&gt;Data&lt;/font&gt;" style="rounded=1;whiteSpace=wrap;html=1;fillColor=none;strokeColor=#d6b656;sketch=1;fontColor=#888888;" parent="1" vertex="1">
          <mxGeometry x="400" y="320" width="120" height="30" as="geometry" />
        </mxCell>
        <mxCell id="aCj7oY5DYd-7I4Zeuc7w-26" value="&lt;font face=&quot;Verdana&quot;&gt;Virtualaization&lt;/font&gt;" style="rounded=1;whiteSpace=wrap;html=1;fillColor=none;strokeColor=#6c8ebf;sketch=1;fontColor=#888888;" parent="1" vertex="1">
          <mxGeometry x="400" y="480" width="120" height="30" as="geometry" />
        </mxCell>
        <mxCell id="aCj7oY5DYd-7I4Zeuc7w-27" value="&lt;font face=&quot;Verdana&quot;&gt;Servers&lt;/font&gt;" style="rounded=1;whiteSpace=wrap;html=1;fillColor=none;strokeColor=#6c8ebf;sketch=1;fontColor=#888888;" parent="1" vertex="1">
          <mxGeometry x="400" y="520" width="120" height="30" as="geometry" />
        </mxCell>
        <mxCell id="aCj7oY5DYd-7I4Zeuc7w-28" value="&lt;font face=&quot;Verdana&quot;&gt;Storage&lt;/font&gt;" style="rounded=1;whiteSpace=wrap;html=1;fillColor=none;strokeColor=#6c8ebf;sketch=1;fontColor=#888888;" parent="1" vertex="1">
          <mxGeometry x="400" y="560" width="120" height="30" as="geometry" />
        </mxCell>
        <mxCell id="aCj7oY5DYd-7I4Zeuc7w-29" value="&lt;font face=&quot;Verdana&quot;&gt;Networking&lt;/font&gt;" style="rounded=1;whiteSpace=wrap;html=1;fillColor=none;strokeColor=#6c8ebf;sketch=1;fontColor=#888888;" parent="1" vertex="1">
          <mxGeometry x="400" y="600" width="120" height="30" as="geometry" />
        </mxCell>
        <mxCell id="aCj7oY5DYd-7I4Zeuc7w-30" value="&lt;font face=&quot;Verdana&quot;&gt;Applications&lt;/font&gt;" style="rounded=1;whiteSpace=wrap;html=1;fillColor=none;strokeColor=#6c8ebf;sketch=1;fontColor=#888888;" parent="1" vertex="1">
          <mxGeometry x="530" y="280" width="120" height="30" as="geometry" />
        </mxCell>
        <mxCell id="aCj7oY5DYd-7I4Zeuc7w-31" value="&lt;font face=&quot;Verdana&quot;&gt;Runtimes&lt;/font&gt;" style="rounded=1;whiteSpace=wrap;html=1;fillColor=none;strokeColor=#6c8ebf;sketch=1;fontColor=#888888;" parent="1" vertex="1">
          <mxGeometry x="530" y="360" width="120" height="30" as="geometry" />
        </mxCell>
        <mxCell id="aCj7oY5DYd-7I4Zeuc7w-32" value="&lt;font face=&quot;Verdana&quot;&gt;Middleware&lt;/font&gt;" style="rounded=1;whiteSpace=wrap;html=1;fillColor=none;strokeColor=#6c8ebf;sketch=1;fontColor=#888888;" parent="1" vertex="1">
          <mxGeometry x="530" y="400" width="120" height="30" as="geometry" />
        </mxCell>
        <mxCell id="aCj7oY5DYd-7I4Zeuc7w-33" value="&lt;font face=&quot;Verdana&quot;&gt;OS&lt;/font&gt;" style="rounded=1;whiteSpace=wrap;html=1;fillColor=none;strokeColor=#6c8ebf;sketch=1;fontColor=#888888;" parent="1" vertex="1">
          <mxGeometry x="530" y="440" width="120" height="30" as="geometry" />
        </mxCell>
        <mxCell id="aCj7oY5DYd-7I4Zeuc7w-34" value="&lt;font face=&quot;Verdana&quot;&gt;Data&lt;/font&gt;" style="rounded=1;whiteSpace=wrap;html=1;fillColor=none;strokeColor=#6c8ebf;sketch=1;fontColor=#888888;" parent="1" vertex="1">
          <mxGeometry x="530" y="320" width="120" height="30" as="geometry" />
        </mxCell>
        <mxCell id="aCj7oY5DYd-7I4Zeuc7w-35" value="&lt;font face=&quot;Verdana&quot;&gt;Virtualaization&lt;/font&gt;" style="rounded=1;whiteSpace=wrap;html=1;fillColor=none;strokeColor=#6c8ebf;sketch=1;fontColor=#888888;" parent="1" vertex="1">
          <mxGeometry x="530" y="480" width="120" height="30" as="geometry" />
        </mxCell>
        <mxCell id="aCj7oY5DYd-7I4Zeuc7w-36" value="&lt;font face=&quot;Verdana&quot;&gt;Servers&lt;/font&gt;" style="rounded=1;whiteSpace=wrap;html=1;fillColor=none;strokeColor=#6c8ebf;sketch=1;fontColor=#888888;" parent="1" vertex="1">
          <mxGeometry x="530" y="520" width="120" height="30" as="geometry" />
        </mxCell>
        <mxCell id="aCj7oY5DYd-7I4Zeuc7w-37" value="&lt;font face=&quot;Verdana&quot;&gt;Storage&lt;/font&gt;" style="rounded=1;whiteSpace=wrap;html=1;fillColor=none;strokeColor=#6c8ebf;sketch=1;fontColor=#888888;" parent="1" vertex="1">
          <mxGeometry x="530" y="560" width="120" height="30" as="geometry" />
        </mxCell>
        <mxCell id="aCj7oY5DYd-7I4Zeuc7w-38" value="&lt;font face=&quot;Verdana&quot;&gt;Networking&lt;/font&gt;" style="rounded=1;whiteSpace=wrap;html=1;fillColor=none;strokeColor=#6c8ebf;sketch=1;fontColor=#888888;" parent="1" vertex="1">
          <mxGeometry x="530" y="600" width="120" height="30" as="geometry" />
        </mxCell>
        <mxCell id="aCj7oY5DYd-7I4Zeuc7w-39" value="&lt;b&gt;On-Premise&lt;/b&gt;" style="text;html=1;align=center;verticalAlign=middle;resizable=0;points=[];autosize=1;strokeColor=none;fillColor=none;fontFamily=Verdana;sketch=1;fontColor=#888888;" parent="1" vertex="1">
          <mxGeometry x="155" y="250" width="90" height="20" as="geometry" />
        </mxCell>
        <mxCell id="aCj7oY5DYd-7I4Zeuc7w-40" value="&lt;b&gt;IaaS&lt;/b&gt;" style="text;html=1;align=center;verticalAlign=middle;resizable=0;points=[];autosize=1;strokeColor=none;fillColor=none;fontFamily=Verdana;sketch=1;fontColor=#888888;" parent="1" vertex="1">
          <mxGeometry x="305" y="250" width="50" height="20" as="geometry" />
        </mxCell>
        <mxCell id="aCj7oY5DYd-7I4Zeuc7w-41" value="&lt;b&gt;PaaS&lt;/b&gt;" style="text;html=1;align=center;verticalAlign=middle;resizable=0;points=[];autosize=1;strokeColor=none;fillColor=none;fontFamily=Verdana;sketch=1;fontColor=#888888;" parent="1" vertex="1">
          <mxGeometry x="435" y="250" width="50" height="20" as="geometry" />
        </mxCell>
        <mxCell id="aCj7oY5DYd-7I4Zeuc7w-42" value="&lt;b&gt;SaaS&lt;/b&gt;" style="text;html=1;align=center;verticalAlign=middle;resizable=0;points=[];autosize=1;strokeColor=none;fillColor=none;fontFamily=Verdana;sketch=1;fontColor=#888888;" parent="1" vertex="1">
          <mxGeometry x="565" y="250" width="50" height="20" as="geometry" />
        </mxCell>
        <mxCell id="aCj7oY5DYd-7I4Zeuc7w-43" value="&lt;font face=&quot;Verdana&quot;&gt;Networking&lt;/font&gt;" style="rounded=1;whiteSpace=wrap;html=1;fillColor=none;strokeColor=#6c8ebf;sketch=1;fontColor=#888888;" parent="1" vertex="1">
          <mxGeometry x="270" y="600" width="120" height="30" as="geometry" />
        </mxCell>
        <mxCell id="aCj7oY5DYd-7I4Zeuc7w-44" value="&lt;font face=&quot;Verdana&quot;&gt;Storage&lt;/font&gt;" style="rounded=1;whiteSpace=wrap;html=1;fillColor=none;strokeColor=#6c8ebf;sketch=1;fontColor=#888888;" parent="1" vertex="1">
          <mxGeometry x="270" y="560" width="120" height="30" as="geometry" />
        </mxCell>
        <mxCell id="OHeP1UhM9KzQXJzXERnE-6" style="edgeStyle=orthogonalEdgeStyle;curved=1;orthogonalLoop=1;jettySize=auto;html=1;exitX=0.5;exitY=0;exitDx=0;exitDy=0;entryX=0.16;entryY=0.55;entryDx=0;entryDy=0;entryPerimeter=0;fontFamily=Verdana;fontSize=16;endArrow=none;endFill=0;sketch=1;strokeColor=#FFD966;fontColor=#888888;" parent="1" source="aCj7oY5DYd-7I4Zeuc7w-45" target="OHeP1UhM9KzQXJzXERnE-2" edge="1">
          <mxGeometry relative="1" as="geometry">
            <Array as="points">
              <mxPoint x="200" y="151" />
              <mxPoint x="260" y="151" />
            </Array>
          </mxGeometry>
        </mxCell>
        <mxCell id="aCj7oY5DYd-7I4Zeuc7w-45" value="Managed by Customer" style="rounded=0;whiteSpace=wrap;html=1;fontFamily=Verdana;strokeColor=#d6b656;fillColor=none;sketch=1;fontColor=#888888;" parent="1" vertex="1">
          <mxGeometry x="135" y="180" width="130" height="40" as="geometry" />
        </mxCell>
        <mxCell id="aCj7oY5DYd-7I4Zeuc7w-46" value="Managed by Cloud Provider" style="rounded=0;whiteSpace=wrap;html=1;fontFamily=Verdana;strokeColor=#6c8ebf;fillColor=none;sketch=1;fontColor=#888888;" parent="1" vertex="1">
          <mxGeometry x="525" y="180" width="130" height="40" as="geometry" />
        </mxCell>
        <mxCell id="OHeP1UhM9KzQXJzXERnE-7" style="edgeStyle=orthogonalEdgeStyle;curved=1;sketch=1;orthogonalLoop=1;jettySize=auto;html=1;exitX=0.875;exitY=0.5;exitDx=0;exitDy=0;exitPerimeter=0;entryX=0.5;entryY=0;entryDx=0;entryDy=0;fontFamily=Verdana;fontSize=16;endArrow=none;endFill=0;strokeColor=#8CB5EE;fontColor=#888888;" parent="1" source="OHeP1UhM9KzQXJzXERnE-2" target="aCj7oY5DYd-7I4Zeuc7w-46" edge="1">
          <mxGeometry relative="1" as="geometry" />
        </mxCell>
        <mxCell id="OHeP1UhM9KzQXJzXERnE-2" value="&lt;font style=&quot;font-size: 16px;&quot;&gt;Cloud Service&lt;br style=&quot;font-size: 16px;&quot;&gt;Classifications&lt;/font&gt;" style="ellipse;shape=cloud;whiteSpace=wrap;html=1;sketch=1;fontFamily=Verdana;fontSize=16;fillColor=none;strokeColor=#888888;gradientColor=#DAE8FC;gradientDirection=east;shadow=0;fillStyle=solid;fontColor=#888888;fontStyle=1" parent="1" vertex="1">
          <mxGeometry x="280" y="90" width="235" height="110" as="geometry" />
        </mxCell>
        <mxCell id="RGqxDrWQWZ4hZvEMFih8-1" value="" style="endArrow=none;dashed=1;html=1;dashPattern=1 3;strokeWidth=2;rounded=0;strokeColor=#888888;fontColor=#888888;" edge="1" parent="1">
          <mxGeometry width="50" height="50" relative="1" as="geometry">
            <mxPoint x="120" y="240" as="sourcePoint" />
            <mxPoint x="680" y="240" as="targetPoint" />
          </mxGeometry>
        </mxCell>
      </root>
    </mxGraphModel>
  </diagram>
</mxfile>
